<?xml version="1.0" encoding="UTF-8"?>
<!-- Generated by Pixelmator Pro 3.7.1 -->
<svg width="28" height="42" viewBox="0 0 28 42" xmlns="http://www.w3.org/2000/svg">
    <g id="Actions-copy">
        <filter id="filter1" x="0" y="0" width="28" height="42" filterUnits="userSpaceOnUse" primitiveUnits="userSpaceOnUse" color-interpolation-filters="sRGB">
            <feGaussianBlur stdDeviation="0.804878"/>
            <feOffset dx="-0" dy="0.804878" result="offsetblur"/>
            <feFlood flood-color="#000000" flood-opacity="0.15"/>
            <feComposite in2="offsetblur" operator="in"/>
            <feMerge>
                <feMergeNode/>
                <feMergeNode in="SourceGraphic"/>
            </feMerge>
        </filter>
        <g id="Path" filter="url(#filter1)">
            <linearGradient id="linearGradient1" x1="12.396865" y1="34.439628" x2="10.723354" y2="2.11943" gradientUnits="userSpaceOnUse">
                <stop offset="0" stop-color="#ffc53e" stop-opacity="1"/>
                <stop offset="1" stop-color="#ff5b17" stop-opacity="1"/>
            </linearGradient>
            <path id="path1" fill="url(#linearGradient1)" fill-rule="evenodd" stroke="none" d="M 3 24 L 13 24 L 9 38 L 23 17 L 12 17 L 19 5 L 8 5 Z"/>
            <path id="path2" fill="#ff651b" fill-opacity="0.194513" fill-rule="evenodd" stroke="none" d="M 13 24 L 3 24 L 8 5 L 19 5 L 12 17 L 23 17 L 9 38 L 13 24 Z M 13 23.195122 L 4.044091 23.195122 L 8.620472 5.804878 L 17.598679 5.804878 L 11.304764 16.594446 C 10.99176 17.131023 11.378802 17.804878 12 17.804878 L 21.496071 17.804878 L 11.190406 33.263378 L 13.77391 24.221117 C 13.920815 23.706947 13.534744 23.195122 13 23.195122 Z"/>
        </g>
    </g>
</svg>
