<?xml version="1.0" encoding="UTF-8"?>
<!-- Generated by Pixelmator Pro 3.7.1 -->
<svg width="54" height="40" viewBox="0 0 54 40" xmlns="http://www.w3.org/2000/svg">
    <g id="New-Branch-copy">
        <path id="Path" fill="none" stroke="#989898" stroke-linecap="round" d="M 24 26 C 24 26 2.866455 26.841675 6 31 C 10.67688 37.206421 31 35 31 35"/>
        <filter id="filter1" x="0" y="0" width="54" height="40" filterUnits="userSpaceOnUse" primitiveUnits="userSpaceOnUse" color-interpolation-filters="sRGB">
            <feGaussianBlur stdDeviation="1"/>
            <feOffset dx="-0" dy="1" result="offsetblur"/>
            <feFlood flood-color="#000000" flood-opacity="0.15"/>
            <feComposite in2="offsetblur" operator="in"/>
            <feMerge>
                <feMergeNode/>
                <feMergeNode in="SourceGraphic"/>
            </feMerge>
        </filter>
        <g id="g1" filter="url(#filter1)">
            <linearGradient id="linearGradient1" x1="22.575211" y1="1.167834" x2="22.575211" y2="29.167834" gradientUnits="userSpaceOnUse">
                <stop offset="0" stop-color="#ffffff" stop-opacity="1"/>
                <stop offset="1" stop-color="#ecf1f5" stop-opacity="1"/>
            </linearGradient>
            <path id="path1" fill="url(#linearGradient1)" fill-rule="evenodd" stroke="none" d="M 22 29 L 1 15 L 22 1 L 44 15 L 22 29 Z"/>
            <path id="path2" fill="#9e9e9e" fill-rule="evenodd" stroke="none" d="M 21.445299 29.83205 C 21.774769 30.051697 22.202808 30.05625 22.536875 29.843662 L 44.536877 15.843661 C 45.154373 15.450707 45.154373 14.549293 44.536877 14.156339 L 22.536875 0.156339 C 22.202808 -0.056249 21.774769 -0.051696 21.445299 0.16795 L 0.4453 14.16795 C -0.148433 14.563772 -0.148433 15.436228 0.4453 15.83205 L 21.445299 29.83205 Z M 1 15 L 22 29 L 44 15 L 22 1 L 1 15 Z"/>
        </g>
        <g id="Group-copy">
            <linearGradient id="linearGradient2" x1="41.527411" y1="39.659122" x2="41.527411" y2="16.12971" gradientUnits="userSpaceOnUse">
                <stop offset="0" stop-color="#3478f6" stop-opacity="1"/>
                <stop offset="1" stop-color="#53b6f9" stop-opacity="1"/>
            </linearGradient>
            <path id="Shape" fill="url(#linearGradient2)" fill-rule="evenodd" stroke="none" d="M 51 29 C 51 23.477154 46.522846 19 41 19 C 35.477154 19 31 23.477154 31 29 C 31 34.522846 35.477154 39 41 39 C 46.522846 39 51 34.522846 51 29 Z"/>
            <path id="Path-copy" fill="none" stroke="#ffffff" stroke-width="2" stroke-linecap="round" stroke-linejoin="round" d="M 45 29 L 37 29 M 41 25 L 41 33"/>
        </g>
    </g>
</svg>
